<svg width="24" height="24" viewBox="0 0 24 24" fill="none" xmlns="http://www.w3.org/2000/svg">
<path d="M10.1277 8.99728V15.7402C10.1355 16.2333 10.3369 16.7036 10.6883 17.0495C11.0397 17.3954 11.5131 17.5893 12.0062 17.5893C12.4994 17.5893 12.9728 17.3954 13.3242 17.0495C13.6756 16.7036 13.877 16.2333 13.8848 15.7402L13.8909 6.90197C13.896 6.48053 13.8174 6.06226 13.6596 5.67142C13.5019 5.28059 13.2682 4.92494 12.9719 4.62512C12.6757 4.32529 12.3229 4.08724 11.9341 3.92477C11.5452 3.7623 11.1279 3.67864 10.7064 3.67864C10.2849 3.67864 9.86766 3.7623 9.47876 3.92477C9.08986 4.08724 8.73708 4.32529 8.44087 4.62512C8.14466 4.92494 7.91091 5.28059 7.75317 5.67142C7.59543 6.06226 7.51684 6.48053 7.52195 6.90197V15.7998C7.51337 16.3931 7.62281 16.9822 7.84393 17.5329C8.06504 18.0835 8.39341 18.5847 8.80995 19.0073C9.22649 19.4299 9.72289 19.7655 10.2703 19.9946C10.8177 20.2236 11.4051 20.3416 11.9985 20.3416C12.5919 20.3416 13.1794 20.2236 13.7268 19.9946C14.2741 19.7655 14.7705 19.4299 15.1871 19.0073C15.6036 18.5847 15.932 18.0835 16.1531 17.5329C16.3742 16.9822 16.4837 16.3931 16.4751 15.7998V7.48509" stroke="#A0AEC0" stroke-width="1.5" stroke-miterlimit="10" stroke-linecap="round"/>
</svg>
