<svg width="18" height="18" viewBox="0 0 18 18" fill="none" xmlns="http://www.w3.org/2000/svg">
<path d="M15.0469 7.8728H10.125C9.67748 7.8728 9.24826 7.69501 8.93179 7.37855C8.61532 7.06208 8.43753 6.63286 8.43753 6.1853V1.26343C8.43753 1.22613 8.42271 1.19036 8.39634 1.16399C8.36997 1.13762 8.3342 1.1228 8.29691 1.1228H5.06253C4.46579 1.1228 3.8935 1.35986 3.47154 1.78181C3.04958 2.20377 2.81253 2.77607 2.81253 3.3728V14.6228C2.81253 15.2195 3.04958 15.7918 3.47154 16.2138C3.8935 16.6357 4.46579 16.8728 5.06253 16.8728H12.9375C13.5343 16.8728 14.1066 16.6357 14.5285 16.2138C14.9505 15.7918 15.1875 15.2195 15.1875 14.6228V8.01343C15.1875 7.97613 15.1727 7.94036 15.1463 7.91399C15.12 7.88762 15.0842 7.8728 15.0469 7.8728ZM11.8125 13.4978H6.18753C6.03835 13.4978 5.89527 13.4385 5.78978 13.3331C5.68429 13.2276 5.62503 13.0845 5.62503 12.9353C5.62503 12.7861 5.68429 12.643 5.78978 12.5376C5.89527 12.4321 6.03835 12.3728 6.18753 12.3728H11.8125C11.9617 12.3728 12.1048 12.4321 12.2103 12.5376C12.3158 12.643 12.375 12.7861 12.375 12.9353C12.375 13.0845 12.3158 13.2276 12.2103 13.3331C12.1048 13.4385 11.9617 13.4978 11.8125 13.4978ZM11.8125 10.6853H6.18753C6.03835 10.6853 5.89527 10.626 5.78978 10.5206C5.68429 10.4151 5.62503 10.272 5.62503 10.1228C5.62503 9.97362 5.68429 9.83054 5.78978 9.72505C5.89527 9.61957 6.03835 9.5603 6.18753 9.5603H11.8125C11.9617 9.5603 12.1048 9.61957 12.2103 9.72505C12.3158 9.83054 12.375 9.97362 12.375 10.1228C12.375 10.272 12.3158 10.4151 12.2103 10.5206C12.1048 10.626 11.9617 10.6853 11.8125 10.6853Z" fill="#31C48D"/>
<path d="M14.738 6.6279L9.68218 1.57208C9.67235 1.56231 9.65985 1.55566 9.64625 1.55297C9.63265 1.55028 9.61856 1.55167 9.60575 1.55697C9.59293 1.56227 9.58197 1.57124 9.57424 1.58274C9.56652 1.59425 9.56236 1.60779 9.5623 1.62165V6.18529C9.5623 6.33447 9.62156 6.47754 9.72705 6.58303C9.83254 6.68852 9.97562 6.74779 10.1248 6.74779H14.6884C14.7023 6.74773 14.7158 6.74357 14.7273 6.73584C14.7389 6.72811 14.7478 6.71715 14.7531 6.70434C14.7584 6.69153 14.7598 6.67744 14.7571 6.66384C14.7544 6.65024 14.7478 6.63773 14.738 6.6279Z" fill="#31C48D"/>
</svg>
