<svg width="64" height="64" viewBox="0 0 64 64" fill="none" xmlns="http://www.w3.org/2000/svg">
<path d="M42.1246 1.65398C41.0655 0.594955 39.6292 0 38.1315 0H14.1176C10.9989 0 8.47058 2.52828 8.47058 5.64706V58.3529C8.47058 61.4717 10.9989 64 14.1176 64H49.8823C53.0011 64 55.5294 61.4717 55.5294 58.3529V17.3979C55.5294 15.9002 54.9344 14.4639 53.8754 13.4048L42.1246 1.65398Z" fill="#F7FAFC"/>
<path d="M38.1315 0.75C39.4303 0.75 40.6759 1.26594 41.5942 2.18431L53.3451 13.9352C54.2635 14.8535 54.7794 16.0991 54.7794 17.3979V58.3529C54.7794 61.0575 52.5869 63.25 49.8823 63.25H14.1176C11.4131 63.25 9.22058 61.0575 9.22058 58.3529V5.64706C9.22058 2.94249 11.4131 0.75 14.1176 0.75H38.1315Z" stroke="#A0AEC0" stroke-width="1.5"/>
<path d="M42.1227 1.65213L53.8773 13.4068C54.3593 13.8892 54.745 14.4499 55.0222 15.0589H44.2353C42.1561 15.0589 40.4706 13.3734 40.4706 11.2942V0.507263C41.0796 0.784406 41.6402 1.17015 42.1227 1.65213Z" fill="#A0AEC0"/>
<rect x="17.001" y="29.3625" width="29.998" height="2" rx="1" fill="#A0AEC0"/>
<rect x="17.001" y="34.7625" width="9.68359" height="2" rx="1" fill="#A0AEC0"/>
<rect x="28.0292" y="34.7625" width="18.9697" height="2" rx="1" fill="#A0AEC0"/>
<rect x="17.001" y="40.1624" width="19.3066" height="2" rx="1" fill="#A0AEC0"/>
<rect x="38.0938" y="40.1624" width="8.90527" height="2" rx="1" fill="#A0AEC0"/>
<rect x="17.001" y="45.5623" width="5.70898" height="2" rx="1" fill="#A0AEC0"/>
<rect x="24.7139" y="45.5623" width="22.2852" height="2" rx="1" fill="#A0AEC0"/>
<rect x="17.001" y="50.9622" width="14.376" height="2" rx="1" fill="#A0AEC0"/>
</svg>
