<svg width="64" height="64" viewBox="0 0 64 64" fill="none" xmlns="http://www.w3.org/2000/svg">
<path d="M42.1246 1.65398C41.0655 0.594955 39.6292 0 38.1315 0H14.1176C10.9989 0 8.47058 2.52828 8.47058 5.64706V58.3529C8.47058 61.4717 10.9989 64 14.1176 64H49.8823C53.0011 64 55.5294 61.4717 55.5294 58.3529V17.3979C55.5294 15.9002 54.9344 14.4639 53.8754 13.4048L42.1246 1.65398Z" fill="#EBF5FF"/>
<path d="M38.1315 0.75C39.4303 0.75 40.6759 1.26594 41.5942 2.18431L53.3451 13.9352C54.2635 14.8535 54.7794 16.0991 54.7794 17.3979V58.3529C54.7794 61.0575 52.5869 63.25 49.8823 63.25H14.1176C11.4131 63.25 9.22058 61.0575 9.22058 58.3529V5.64706C9.22058 2.94249 11.4131 0.75 14.1176 0.75H38.1315Z" stroke="#3F83F8" stroke-width="1.5"/>
<path d="M42.1227 1.65207L53.8773 13.4067C54.3593 13.8892 54.745 14.4498 55.0222 15.0588H44.2353C42.1561 15.0588 40.4706 13.3733 40.4706 11.2941V0.507202C41.0796 0.784345 41.6402 1.17009 42.1227 1.65207Z" fill="#3F83F8"/>
<path d="M20.8357 41H17.5395V30.8182H20.9401C21.9377 30.8182 22.7945 31.022 23.5104 31.4297C24.2263 31.834 24.7748 32.4157 25.156 33.1747C25.5405 33.9304 25.7327 34.8369 25.7327 35.8942C25.7327 36.9548 25.5388 37.8662 25.151 38.6285C24.7665 39.3908 24.2097 39.9775 23.4806 40.3885C22.7514 40.7961 21.8698 41 20.8357 41ZM19.0757 39.6576H20.7512C21.5267 39.6576 22.1714 39.5118 22.6851 39.2201C23.1988 38.9252 23.5833 38.4993 23.8385 37.9424C24.0937 37.3823 24.2213 36.6996 24.2213 35.8942C24.2213 35.0954 24.0937 34.4176 23.8385 33.8608C23.5866 33.304 23.2104 32.8814 22.71 32.593C22.2095 32.3047 21.588 32.1605 20.8456 32.1605H19.0757V39.6576Z" fill="#3F83F8"/>
<path d="M36.4875 35.9091C36.4875 36.9962 36.2886 37.9308 35.8909 38.713C35.4932 39.4919 34.9479 40.0918 34.2552 40.5128C33.5658 40.9304 32.782 41.1392 31.9037 41.1392C31.022 41.1392 30.2349 40.9304 29.5422 40.5128C28.8528 40.0918 28.3092 39.4903 27.9115 38.7081C27.5138 37.9259 27.3149 36.9929 27.3149 35.9091C27.3149 34.8219 27.5138 33.8889 27.9115 33.1101C28.3092 32.3279 28.8528 31.728 29.5422 31.3103C30.2349 30.8894 31.022 30.679 31.9037 30.679C32.782 30.679 33.5658 30.8894 34.2552 31.3103C34.9479 31.728 35.4932 32.3279 35.8909 33.1101C36.2886 33.8889 36.4875 34.8219 36.4875 35.9091ZM34.9662 35.9091C34.9662 35.0805 34.8319 34.3828 34.5635 33.816C34.2983 33.246 33.9337 32.8151 33.4697 32.5234C33.009 32.2284 32.487 32.0809 31.9037 32.0809C31.317 32.0809 30.7934 32.2284 30.3327 32.5234C29.872 32.8151 29.5074 33.246 29.2389 33.816C28.9737 34.3828 28.8412 35.0805 28.8412 35.9091C28.8412 36.7377 28.9737 37.437 29.2389 38.0071C29.5074 38.5738 29.872 39.0047 30.3327 39.2997C30.7934 39.5914 31.317 39.7372 31.9037 39.7372C32.487 39.7372 33.009 39.5914 33.4697 39.2997C33.9337 39.0047 34.2983 38.5738 34.5635 38.0071C34.8319 37.437 34.9662 36.7377 34.9662 35.9091Z" fill="#3F83F8"/>
<path d="M46.8595 34.1292H45.3083C45.2487 33.7978 45.1376 33.5061 44.9752 33.2542C44.8128 33.0023 44.614 32.7886 44.3786 32.6129C44.1433 32.4372 43.8798 32.3047 43.5882 32.2152C43.2998 32.1257 42.9932 32.0809 42.6684 32.0809C42.0818 32.0809 41.5564 32.2284 41.0924 32.5234C40.6317 32.8184 40.2671 33.2509 39.9987 33.821C39.7335 34.3911 39.6009 35.0871 39.6009 35.9091C39.6009 36.7377 39.7335 37.437 39.9987 38.0071C40.2671 38.5772 40.6334 39.008 41.0974 39.2997C41.5614 39.5914 42.0834 39.7372 42.6634 39.7372C42.9849 39.7372 43.2899 39.6941 43.5782 39.6079C43.8699 39.5184 44.1334 39.3875 44.3687 39.2152C44.604 39.0428 44.8029 38.8324 44.9653 38.5838C45.131 38.3319 45.2454 38.0435 45.3083 37.7187L46.8595 37.7237C46.7766 38.2242 46.6159 38.6849 46.3772 39.1058C46.1419 39.5234 45.8386 39.8847 45.4674 40.1896C45.0995 40.4912 44.6786 40.7249 44.2046 40.8906C43.7307 41.0563 43.2136 41.1392 42.6535 41.1392C41.7719 41.1392 40.9864 40.9304 40.297 40.5128C39.6076 40.0918 39.064 39.4903 38.6663 38.7081C38.2719 37.9259 38.0747 36.9929 38.0747 35.9091C38.0747 34.8219 38.2735 33.8889 38.6713 33.1101C39.069 32.3279 39.6125 31.728 40.3019 31.3103C40.9913 30.8894 41.7752 30.679 42.6535 30.679C43.1937 30.679 43.6975 30.7568 44.1649 30.9126C44.6355 31.0651 45.0581 31.2905 45.4326 31.5888C45.8071 31.8837 46.117 32.245 46.3623 32.6726C46.6076 33.0968 46.7733 33.5824 46.8595 34.1292Z" fill="#3F83F8"/>
</svg>
