<svg width="64" height="64" viewBox="0 0 64 64" fill="none" xmlns="http://www.w3.org/2000/svg">
<path d="M63.9062 25.8328V45.8943C63.9062 50.2106 60.4072 53.7098 56.0907 53.7098H7.90928C3.59293 53.7098 0.0937347 50.2108 0.0937347 45.8943V13.4462C0.0937347 9.12987 3.5928 5.63068 7.90928 5.63068H23.2406C24.5365 5.63066 25.812 5.95288 26.9524 6.56834C28.0928 7.18379 29.0623 8.07316 29.7735 9.1564L33.2769 14.4917C33.9882 15.5749 34.9576 16.4642 36.098 17.0797C37.2384 17.6951 38.5139 18.0174 39.8098 18.0174H56.0907C60.4071 18.0173 63.9062 21.5165 63.9062 25.8328Z" fill="#E3A008"/>
<path d="M51.963 0H25.1453C21.8288 0 19.1404 2.68854 19.1404 6.00487V41.5967C19.1404 44.9131 21.8289 47.6016 25.1453 47.6016H51.963C55.2795 47.6016 57.9679 44.9131 57.9679 41.5967V6.00487C57.9679 2.68854 55.2795 0 51.963 0Z" fill="#E2E8F0"/>
<path d="M42.3749 9.16565H15.5571C12.2407 9.16565 9.55225 11.8542 9.55225 15.1705V50.7623C9.55225 54.0788 12.2408 56.7672 15.5571 56.7672H42.3749C45.6914 56.7672 48.3798 54.0788 48.3798 50.7623V15.1705C48.3798 11.8541 45.6914 9.16565 42.3749 9.16565Z" fill="#F7FAFC"/>
<path d="M63.9063 36.123V56.1845C63.9063 60.5009 60.4072 64.0001 56.0907 64.0001H7.9093C3.59294 64.0001 0.09375 60.501 0.09375 56.1845V23.7364C0.09375 19.4201 3.59282 15.9209 7.9093 15.9209H23.2406C24.5365 15.9209 25.8121 16.2431 26.9524 16.8586C28.0928 17.474 29.0623 18.3634 29.7736 19.4466L33.2769 24.7819C33.9882 25.8651 34.9576 26.7545 36.098 27.3699C37.2384 27.9854 38.5139 28.3076 39.8098 28.3076H56.0906C60.4072 28.3076 63.9063 31.8067 63.9063 36.123Z" fill="#FACA15"/>
<path d="M24.0147 35.2385H7.54117C7.28501 35.2385 7.03934 35.1367 6.85821 34.9556C6.67708 34.7744 6.57532 34.5288 6.57532 34.2726C6.57532 34.0165 6.67708 33.7708 6.85821 33.5897C7.03934 33.4085 7.28501 33.3068 7.54117 33.3068H24.0147C24.2709 33.3068 24.5165 33.4085 24.6977 33.5897C24.8788 33.7708 24.9806 34.0165 24.9806 34.2726C24.9806 34.5288 24.8788 34.7744 24.6977 34.9556C24.5165 35.1367 24.2709 35.2385 24.0147 35.2385ZM24.0147 38.8121H7.54117C7.28501 38.8121 7.03934 38.7104 6.85821 38.5292C6.67708 38.3481 6.57532 38.1024 6.57532 37.8463C6.57532 37.5901 6.67708 37.3444 6.85821 37.1633C7.03934 36.9822 7.28501 36.8804 7.54117 36.8804H24.0147C24.2709 36.8804 24.5165 36.9822 24.6977 37.1633C24.8788 37.3444 24.9806 37.5901 24.9806 37.8463C24.9806 38.1024 24.8788 38.3481 24.6977 38.5292C24.5165 38.7104 24.2709 38.8121 24.0147 38.8121Z" fill="#FDFDEA"/>
</svg>
