<svg width="52" height="64" viewBox="0 0 52 64" fill="none" xmlns="http://www.w3.org/2000/svg">
<path d="M42.8808 58.0384H9.75504C8.33262 58.0384 7.17959 56.8853 7.17959 55.4629V7.90125H2.91103C1.3525 7.90125 0.0891113 9.16463 0.0891113 10.7232V61.1782C0.0891113 62.7366 1.3525 64 2.91103 64H40.059C41.6175 64 42.8809 62.7366 42.8809 61.1781V58.0384H42.8808Z" fill="#E2E8F0"/>
<path d="M47.3958 53.5233H14.2701C12.8476 53.5233 11.6946 52.3703 11.6946 50.9479V4.51501H7.42604C5.86764 4.51501 4.60425 5.7784 4.60425 7.33694V57.7919C4.60425 59.3504 5.86764 60.6138 7.42604 60.6138H44.574C46.1325 60.6138 47.3959 59.3504 47.3959 57.7919V53.5233H47.3958Z" fill="#3F83F8"/>
<path d="M48.8313 55.5988H11.9409C10.6587 55.5988 9.61914 54.5593 9.61914 53.2768V2.82192C9.61914 1.53952 10.6587 0.5 11.9409 0.5H38.7954C39.7375 0.5 40.6398 0.879782 41.2983 1.55348L50.156 10.6154C50.7952 11.2693 51.1531 12.1474 51.1531 13.0619V53.2768C51.1532 54.5592 50.1137 55.5988 48.8313 55.5988Z" fill="#F3FAF7" stroke="#31C48D"/>
<path d="M41.8006 1.45642L50.5593 10.4038C50.9184 10.7711 51.2058 11.1978 51.4124 11.6614H43.3748C41.8255 11.6614 40.5696 10.3784 40.5696 8.79575V0.584961C41.0234 0.795917 41.4411 1.08954 41.8006 1.45642Z" fill="#31C48D"/>
<path d="M30.0251 8.7386H15.5479C15.4366 8.7386 15.3264 8.71448 15.2236 8.66761C15.1208 8.62075 15.0274 8.55206 14.9487 8.46546C14.8701 8.37887 14.8076 8.27607 14.7651 8.16293C14.7225 8.04979 14.7006 7.92853 14.7006 7.80607C14.7006 7.6836 14.7225 7.56234 14.7651 7.4492C14.8076 7.33606 14.8701 7.23326 14.9487 7.14667C15.0274 7.06007 15.1208 6.99138 15.2236 6.94452C15.3264 6.89766 15.4366 6.87354 15.5479 6.87354H30.0251C30.4932 6.87354 30.8724 7.29104 30.8724 7.80607C30.8724 8.32109 30.4932 8.7386 30.0251 8.7386ZM45.2249 32.8129H15.5535C15.4422 32.8129 15.332 32.7888 15.2292 32.7419C15.1264 32.6951 15.033 32.6264 14.9543 32.5398C14.8756 32.4532 14.8132 32.3504 14.7706 32.2372C14.728 32.1241 14.7061 32.0028 14.7062 31.8803C14.7061 31.7579 14.728 31.6366 14.7706 31.5235C14.8132 31.4103 14.8756 31.3075 14.9543 31.2209C15.033 31.1343 15.1264 31.0656 15.2292 31.0188C15.332 30.9719 15.4422 30.9478 15.5535 30.9478H45.2249C45.3362 30.9478 45.4464 30.9719 45.5492 31.0188C45.652 31.0656 45.7454 31.1343 45.8241 31.2209C45.9028 31.3075 45.9652 31.4103 46.0078 31.5235C46.0504 31.6366 46.0723 31.7579 46.0723 31.8803C46.0723 32.0028 46.0504 32.1241 46.0078 32.2372C45.9652 32.3504 45.9028 32.4532 45.8241 32.5398C45.7454 32.6264 45.652 32.6951 45.5492 32.7419C45.4464 32.7888 45.3362 32.8129 45.2249 32.8129ZM45.2249 36.543H34.9921C34.7674 36.543 34.5519 36.4447 34.393 36.2699C34.2341 36.095 34.1448 35.8578 34.1448 35.6105C34.1448 35.3631 34.2341 35.126 34.393 34.9511C34.5519 34.7762 34.7674 34.6779 34.9921 34.6779H45.2249C45.693 34.6779 46.0723 35.0954 46.0723 35.6105C46.0723 36.1255 45.693 36.543 45.2249 36.543ZM31.3286 36.543H15.5535C15.3288 36.543 15.1132 36.4447 14.9543 36.2699C14.7954 36.095 14.7062 35.8578 14.7062 35.6105C14.7062 35.3631 14.7954 35.126 14.9543 34.9511C15.1132 34.7762 15.3288 34.6779 15.5535 34.6779H31.3286C31.5533 34.6779 31.7688 34.7762 31.9277 34.9511C32.0866 35.126 32.1759 35.3631 32.1759 35.6105C32.1759 35.8578 32.0866 36.095 31.9277 36.2699C31.7688 36.4447 31.5533 36.543 31.3286 36.543ZM25.9729 40.273H15.5535C15.3288 40.273 15.1132 40.1748 14.9543 39.9999C14.7954 39.825 14.7062 39.5878 14.7062 39.3405C14.7062 39.0931 14.7954 38.856 14.9543 38.6811C15.1132 38.5062 15.3288 38.4079 15.5535 38.4079H25.9729C26.1976 38.4079 26.4131 38.5062 26.572 38.6811C26.7309 38.856 26.8202 39.0931 26.8202 39.3405C26.8202 39.5878 26.7309 39.825 26.572 39.9999C26.4131 40.1748 26.1976 40.273 25.9729 40.273ZM45.2249 49.2253H15.5535C15.3288 49.2253 15.1132 49.1271 14.9543 48.9522C14.7954 48.7773 14.7062 48.5401 14.7062 48.2928C14.7062 48.0455 14.7954 47.8083 14.9543 47.6334C15.1132 47.4585 15.3288 47.3603 15.5535 47.3603H45.2249C45.693 47.3603 46.0723 47.7778 46.0723 48.2928C46.0723 48.8078 45.693 49.2253 45.2249 49.2253Z" fill="#31C48D"/>
<path d="M20.2486 29.3164H15.5475C15.4363 29.3164 15.3262 29.2914 15.2234 29.2429C15.1206 29.1944 15.0273 29.1233 14.9486 29.0337C14.8699 28.944 14.8076 28.8376 14.765 28.7205C14.7224 28.6034 14.7005 28.4779 14.7006 28.3511C14.7005 28.2243 14.7224 28.0988 14.765 27.9817C14.8076 27.8646 14.8699 27.7581 14.9486 27.6685C15.0273 27.5789 15.1206 27.5078 15.2234 27.4592C15.3262 27.4107 15.4363 27.3858 15.5475 27.3858H20.2486C20.7165 27.3858 21.0956 27.818 21.0956 28.3511C21.0956 28.8842 20.7165 29.3164 20.2486 29.3164Z" fill="#31C48D"/>
</svg>
