<svg width="64" height="64" viewBox="0 0 64 64" fill="none" xmlns="http://www.w3.org/2000/svg">
<path d="M42.1246 1.65398C41.0655 0.594955 39.6292 0 38.1315 0H14.1176C10.9989 0 8.47058 2.52828 8.47058 5.64706V58.3529C8.47058 61.4717 10.9989 64 14.1176 64H49.8823C53.0011 64 55.5294 61.4717 55.5294 58.3529V17.3979C55.5294 15.9002 54.9344 14.4639 53.8754 13.4048L42.1246 1.65398Z" fill="#FDFDEA"/>
<path d="M38.1315 0.75C39.4303 0.75 40.6759 1.26594 41.5942 2.18431L53.3451 13.9352C54.2635 14.8535 54.7794 16.0991 54.7794 17.3979V58.3529C54.7794 61.0575 52.5869 63.25 49.8823 63.25H14.1176C11.4131 63.25 9.22058 61.0575 9.22058 58.3529V5.64706C9.22058 2.94249 11.4131 0.75 14.1176 0.75H38.1315Z" stroke="#E3A008" stroke-width="1.5"/>
<path d="M42.1227 1.65213L53.8773 13.4068C54.3593 13.8892 54.745 14.4499 55.0222 15.0589H44.2353C42.1561 15.0589 40.4706 13.3734 40.4706 11.2942V0.507263C41.0796 0.784406 41.6402 1.17015 42.1227 1.65213Z" fill="#E3A008"/>
<path d="M23.493 30.8182H25.0242V38.0369C25.0242 38.6898 24.895 39.2483 24.6365 39.7123C24.3812 40.1764 24.0216 40.531 23.5576 40.7763C23.0936 41.0182 22.55 41.1392 21.9269 41.1392C21.3535 41.1392 20.8382 41.0348 20.3808 40.826C19.9267 40.6172 19.5671 40.3139 19.3019 39.9162C19.0401 39.5151 18.9092 39.0279 18.9092 38.4545H20.4355C20.4355 38.7362 20.5001 38.9799 20.6294 39.1853C20.7619 39.3908 20.9426 39.5516 21.1713 39.6676C21.4033 39.7803 21.6684 39.8366 21.9667 39.8366C22.2915 39.8366 22.5666 39.7687 22.792 39.6328C23.0207 39.4936 23.1947 39.2898 23.314 39.0213C23.4333 38.7528 23.493 38.4247 23.493 38.0369V30.8182Z" fill="#E3A008"/>
<path d="M27.2602 41V30.8182H30.8895C31.6816 30.8182 32.3379 30.9623 32.8582 31.2507C33.3786 31.539 33.768 31.9335 34.0265 32.4339C34.2851 32.9311 34.4143 33.4912 34.4143 34.1143C34.4143 34.7407 34.2834 35.3042 34.0216 35.8047C33.7631 36.3018 33.372 36.6962 32.8483 36.9879C32.3279 37.2763 31.6733 37.4204 30.8845 37.4204H28.3888V36.1179H30.7453C31.2458 36.1179 31.6518 36.0317 31.9633 35.8594C32.2749 35.6837 32.5036 35.4451 32.6494 35.1434C32.7952 34.8418 32.8682 34.4988 32.8682 34.1143C32.8682 33.7299 32.7952 33.3885 32.6494 33.0902C32.5036 32.7919 32.2732 32.5582 31.9584 32.3892C31.6468 32.2201 31.2358 32.1356 30.7254 32.1356H28.7964V41H27.2602Z" fill="#E3A008"/>
<path d="M43.1059 34.0348C43.0098 33.7332 42.8805 33.463 42.7181 33.2244C42.559 32.9825 42.3685 32.777 42.1464 32.6079C41.9243 32.4356 41.6708 32.3047 41.3857 32.2152C41.104 32.1257 40.7941 32.0809 40.4561 32.0809C39.8827 32.0809 39.3656 32.2284 38.9049 32.5234C38.4442 32.8184 38.0796 33.2509 37.8112 33.821C37.546 34.3878 37.4134 35.0821 37.4134 35.9041C37.4134 36.7294 37.5477 37.4271 37.8161 37.9971C38.0846 38.5672 38.4525 38.9997 38.9198 39.2947C39.3872 39.5897 39.9191 39.7372 40.5157 39.7372C41.0692 39.7372 41.5515 39.6245 41.9624 39.3991C42.3767 39.1737 42.6966 38.8556 42.922 38.4446C43.1507 38.0303 43.265 37.5431 43.265 36.9829L43.6627 37.0575H40.7494V35.7898H44.7515V36.9481C44.7515 37.8032 44.5692 38.5457 44.2046 39.1754C43.8434 39.8018 43.3429 40.2857 42.7032 40.6271C42.0669 40.9685 41.3377 41.1392 40.5157 41.1392C39.5943 41.1392 38.7856 40.9271 38.0896 40.5028C37.3969 40.0786 36.8566 39.477 36.4688 38.6981C36.0811 37.9159 35.8872 36.9879 35.8872 35.914C35.8872 35.102 35.9999 34.3728 36.2252 33.7265C36.4506 33.0802 36.7671 32.5317 37.1748 32.0809C37.5858 31.6269 38.068 31.2805 38.6215 31.0419C39.1784 30.7999 39.7865 30.679 40.4461 30.679C40.9963 30.679 41.5084 30.7602 41.9823 30.9226C42.4596 31.085 42.8838 31.3153 43.2551 31.6136C43.6296 31.9119 43.9395 32.2666 44.1847 32.6775C44.43 33.0852 44.5957 33.5376 44.6819 34.0348H43.1059Z" fill="#E3A008"/>
</svg>
