<svg width="24" height="24" viewBox="0 0 24 24" fill="none" xmlns="http://www.w3.org/2000/svg">
<path d="M14.2483 15.7469V17.6219C14.2483 18.1192 14.0622 18.5961 13.7309 18.9478C13.3997 19.2994 12.9504 19.4969 12.482 19.4969H5.41693C4.94849 19.4969 4.49923 19.2994 4.16799 18.9478C3.83675 18.5961 3.65067 18.1192 3.65067 17.6219V6.37195C3.65067 5.87467 3.83675 5.39775 4.16799 5.04612C4.49923 4.69449 4.94849 4.49695 5.41693 4.49695H12.1288C13.1042 4.49695 14.2483 5.33648 14.2483 6.37195V8.24695" stroke="#A0AEC0" stroke-width="1.5" stroke-linecap="round" stroke-linejoin="round"/>
<path d="M17.2501 15.7469L21.0001 11.9969L17.2501 8.24695" stroke="#A0AEC0" stroke-width="1.5" stroke-linecap="round" stroke-linejoin="round"/>
<path d="M8.2502 11.9968H20.2502" stroke="#A0AEC0" stroke-width="1.5" stroke-linecap="round" stroke-linejoin="round"/>
</svg>
