<svg width="64" height="64" viewBox="0 0 64 64" fill="none" xmlns="http://www.w3.org/2000/svg">
<path d="M31.25 23.75C31.25 23.3358 31.5858 23 32 23C32.4142 23 32.75 23.3358 32.75 23.75V42.25C32.75 42.6642 32.4142 43 32 43C31.5858 43 31.25 42.6642 31.25 42.25V23.75Z" fill="#84E1BC"/>
<path d="M22.75 33.75C22.3358 33.75 22 33.4142 22 33C22 32.5858 22.3358 32.25 22.75 32.25L41.25 32.25C41.6642 32.25 42 32.5858 42 33C42 33.4142 41.6642 33.75 41.25 33.75L22.75 33.75Z" fill="#84E1BC"/>
<path d="M32.0386 23.0995V42.9286M22.124 33.014H41.9531M20 57H44C50.6274 57 56 51.6274 56 45V21C56 14.3726 50.6274 9 44 9H20C13.3726 9 8 14.3726 8 21V45C8 51.6274 13.3726 57 20 57Z" stroke="#84E1BC" stroke-width="1.5" stroke-linecap="round"/>
</svg>
