<svg width="18" height="18" viewBox="0 0 18 18" fill="none" xmlns="http://www.w3.org/2000/svg">
<path d="M15.471 11.997C15.4126 11.9267 15.3553 11.8564 15.2991 11.7885C14.5256 10.853 14.0577 10.2884 14.0577 7.64007C14.0577 6.26898 13.7297 5.14397 13.0832 4.30022C12.6065 3.6769 11.962 3.20405 11.1127 2.8546C11.1017 2.84852 11.092 2.84054 11.0838 2.83105C10.7783 1.808 9.94232 1.1228 8.99943 1.1228C8.05654 1.1228 7.22088 1.808 6.91537 2.82999C6.90722 2.83914 6.89759 2.84686 6.88689 2.85284C4.90478 3.66882 3.9415 5.23433 3.9415 7.63901C3.9415 10.2884 3.47428 10.853 2.70014 11.7875C2.64389 11.8553 2.58658 11.9242 2.52822 11.9959C2.37747 12.1777 2.28196 12.3989 2.25299 12.6333C2.22402 12.8677 2.2628 13.1055 2.36475 13.3185C2.58166 13.7755 3.04396 14.0592 3.57166 14.0592H14.4311C14.9563 14.0592 15.4154 13.7759 15.6331 13.321C15.7355 13.1079 15.7746 12.8699 15.7459 12.6352C15.7172 12.4006 15.6218 12.1791 15.471 11.997Z" fill="#31C48D"/>
<path d="M8.99774 16.8728C9.50576 16.8724 10.0042 16.7345 10.4402 16.4737C10.8762 16.213 11.2335 15.8391 11.4741 15.3917C11.4855 15.3702 11.4911 15.3462 11.4904 15.322C11.4897 15.2977 11.4828 15.2741 11.4703 15.2533C11.4577 15.2325 11.44 15.2154 11.4189 15.2034C11.3978 15.1915 11.3739 15.1853 11.3497 15.1853H6.64649C6.62221 15.1852 6.59831 15.1914 6.57714 15.2033C6.55597 15.2152 6.53823 15.2324 6.52567 15.2532C6.5131 15.2739 6.50613 15.2976 6.50543 15.3219C6.50473 15.3462 6.51033 15.3702 6.52169 15.3917C6.76234 15.839 7.11957 16.2129 7.55549 16.4736C7.99141 16.7344 8.48978 16.8723 8.99774 16.8728Z" fill="#31C48D"/>
</svg>
