<svg width="64" height="64" viewBox="0 0 64 64" fill="none" xmlns="http://www.w3.org/2000/svg">
<path d="M42.1246 1.65398C41.0655 0.594955 39.6292 0 38.1315 0H14.1176C10.9989 0 8.47058 2.52828 8.47058 5.64706V58.3529C8.47058 61.4717 10.9989 64 14.1176 64H49.8823C53.0011 64 55.5294 61.4717 55.5294 58.3529V17.3979C55.5294 15.9002 54.9344 14.4639 53.8754 13.4048L42.1246 1.65398Z" fill="#FDF2F2"/>
<path d="M38.1315 0.75C39.4303 0.75 40.6759 1.26594 41.5942 2.18431L53.3451 13.9352C54.2635 14.8535 54.7794 16.0991 54.7794 17.3979V58.3529C54.7794 61.0575 52.5869 63.25 49.8823 63.25H14.1176C11.4131 63.25 9.22058 61.0575 9.22058 58.3529V5.64706C9.22058 2.94249 11.4131 0.75 14.1176 0.75H38.1315Z" stroke="#F05252" stroke-width="1.5"/>
<path d="M42.1227 1.65213L53.8773 13.4068C54.3593 13.8892 54.745 14.4499 55.0222 15.0589H44.2353C42.1561 15.0589 40.4706 13.3734 40.4706 11.2942V0.507263C41.0796 0.784406 41.6402 1.17015 42.1227 1.65213Z" fill="#F05252"/>
<path d="M19.1186 41V30.8182H22.7479C23.54 30.8182 24.1963 30.9624 24.7166 31.2507C25.237 31.5391 25.6264 31.9335 25.8849 32.4339C26.1435 32.9311 26.2727 33.4912 26.2727 34.1143C26.2727 34.7408 26.1418 35.3042 25.88 35.8047C25.6214 36.3018 25.2303 36.6963 24.7067 36.9879C24.1863 37.2763 23.5317 37.4204 22.7429 37.4204H20.2472V36.1179H22.6037C23.1042 36.1179 23.5102 36.0317 23.8217 35.8594C24.1333 35.6837 24.362 35.4451 24.5078 35.1435C24.6536 34.8419 24.7266 34.4988 24.7266 34.1143C24.7266 33.7299 24.6536 33.3885 24.5078 33.0902C24.362 32.7919 24.1316 32.5582 23.8168 32.3892C23.5052 32.2202 23.0942 32.1356 22.5838 32.1356H20.6548V41H19.1186Z" fill="#F05252"/>
<path d="M31.3698 41H28.0737V30.8182H31.4743C32.4719 30.8182 33.3287 31.022 34.0446 31.4297C34.7605 31.834 35.309 32.4157 35.6902 33.1747C36.0746 33.9304 36.2669 34.8369 36.2669 35.8942C36.2669 36.9548 36.073 37.8662 35.6852 38.6285C35.3007 39.3909 34.7439 39.9775 34.0147 40.3885C33.2856 40.7962 32.4039 41 31.3698 41ZM29.6099 39.6577H31.2853C32.0609 39.6577 32.7056 39.5118 33.2193 39.2202C33.733 38.9252 34.1175 38.4993 34.3727 37.9425C34.6279 37.3823 34.7555 36.6996 34.7555 35.8942C34.7555 35.0954 34.6279 34.4176 34.3727 33.8608C34.1208 33.304 33.7446 32.8814 33.2441 32.593C32.7437 32.3047 32.1222 32.1605 31.3798 32.1605H29.6099V39.6577Z" fill="#F05252"/>
<path d="M38.1772 41V30.8182H44.4911V32.1406H39.7134V35.2429H44.0387V36.5604H39.7134V41H38.1772Z" fill="#F05252"/>
</svg>
