<svg width="18" height="18" viewBox="0 0 18 18" fill="none" xmlns="http://www.w3.org/2000/svg">
<path fill-rule="evenodd" clip-rule="evenodd" d="M12.5383 1.68518H12.9395C13.5362 1.68518 14.1085 1.92223 14.5304 2.34419C14.9524 2.76615 15.1895 3.33844 15.1895 3.93518V15.1852C15.1895 15.7819 14.9524 16.3542 14.5304 16.7762C14.1085 17.1981 13.5362 17.4352 12.9395 17.4352H5.06445C4.46772 17.4352 3.89542 17.1981 3.47346 16.7762C3.05151 16.3542 2.81445 15.7819 2.81445 15.1852V3.93518C2.81445 3.33844 3.05151 2.76615 3.47346 2.34419C3.89542 1.92223 4.46772 1.68518 5.06445 1.68518H5.46559C5.52208 1.68512 5.57724 1.66806 5.6239 1.6362C5.67055 1.60435 5.70653 1.55918 5.72715 1.50659C5.83522 1.2281 6.02488 0.988744 6.27129 0.819872C6.5177 0.651 6.80936 0.560484 7.10809 0.560181H10.8958C11.1945 0.560484 11.4862 0.651 11.7326 0.819872C11.979 0.988744 12.1687 1.2281 12.2768 1.50659C12.2974 1.55918 12.3334 1.60435 12.38 1.6362C12.4267 1.66806 12.4818 1.68512 12.5383 1.68518ZM6.75652 3.93518H11.2474C11.3966 3.93518 11.5396 3.87592 11.6451 3.77043C11.7506 3.66494 11.8099 3.52186 11.8099 3.37268C11.8099 3.2235 11.7506 3.08042 11.6451 2.97493C11.5396 2.86944 11.3966 2.81018 11.2474 2.81018H6.75652C6.60734 2.81018 6.46426 2.86944 6.35878 2.97493C6.25329 3.08042 6.19402 3.2235 6.19402 3.37268C6.19402 3.52186 6.25329 3.66494 6.35878 3.77043C6.46426 3.87592 6.60734 3.93518 6.75652 3.93518ZM11.8525 8.86504C12.0344 8.671 12.0245 8.36628 11.8305 8.18442C11.6365 8.00257 11.3317 8.01244 11.1499 8.20648L8.24373 11.3072L6.86112 9.771C6.68322 9.57333 6.37876 9.55731 6.18109 9.73521C5.98342 9.91311 5.9674 10.2176 6.1453 10.4152L7.87863 12.3412C7.96882 12.4414 8.09688 12.4992 8.23168 12.5005C8.36648 12.5019 8.49569 12.4467 8.58787 12.3483L11.8525 8.86504Z" fill="#31C48D"/>
</svg>
