<svg width="64" height="64" viewBox="0 0 64 64" fill="none" xmlns="http://www.w3.org/2000/svg">
<path d="M42.1246 1.65398C41.0655 0.594955 39.6292 0 38.1315 0H14.1176C10.9989 0 8.47058 2.52828 8.47058 5.64706V58.3529C8.47058 61.4717 10.9989 64 14.1176 64H49.8823C53.0011 64 55.5294 61.4717 55.5294 58.3529V17.3979C55.5294 15.9002 54.9344 14.4639 53.8754 13.4048L42.1246 1.65398Z" fill="#F3FAF7"/>
<path d="M38.1315 0.75C39.4303 0.75 40.6759 1.26594 41.5942 2.18431L53.3451 13.9352C54.2635 14.8535 54.7794 16.0991 54.7794 17.3979V58.3529C54.7794 61.0575 52.5869 63.25 49.8823 63.25H14.1176C11.4131 63.25 9.22058 61.0575 9.22058 58.3529V5.64706C9.22058 2.94249 11.4131 0.75 14.1176 0.75H38.1315Z" stroke="#0E9F6E" stroke-width="1.5"/>
<path d="M42.1227 1.65213L53.8773 13.4068C54.3593 13.8892 54.745 14.4499 55.0222 15.0589H44.2353C42.1561 15.0589 40.4706 13.3734 40.4706 11.2942V0.507263C41.0796 0.784406 41.6402 1.17015 42.1227 1.65213Z" fill="#0E9F6E"/>
<path d="M21.5693 30.8182L24.0054 34.8004H24.085L26.521 30.8182H28.3009L25.129 35.9091L28.3208 41H26.531L24.085 37.0724H24.0054L21.5594 41H19.7696L23.0161 35.9091L19.7895 30.8182H21.5693Z" fill="#0E9F6E"/>
<path d="M29.8247 41V30.8182H31.3609V39.6775H35.9745V41H29.8247Z" fill="#0E9F6E"/>
<path d="M43.2803 33.4929C43.2272 33.0222 43.0085 32.6576 42.624 32.3991C42.2396 32.1373 41.7557 32.0064 41.1723 32.0064C40.7547 32.0064 40.3934 32.0727 40.0885 32.2052C39.7836 32.3345 39.5466 32.5135 39.3776 32.7422C39.2119 32.9675 39.129 33.2244 39.129 33.5128C39.129 33.7547 39.1853 33.9635 39.298 34.1392C39.414 34.3148 39.5648 34.4623 39.7504 34.5817C39.9394 34.6977 40.1415 34.7954 40.357 34.875C40.5724 34.9512 40.7796 35.0142 40.9784 35.0639L41.9727 35.3224C42.2976 35.402 42.6307 35.5097 42.972 35.6456C43.3134 35.7815 43.6299 35.9604 43.9216 36.1825C44.2133 36.4046 44.4486 36.6797 44.6276 37.0078C44.8099 37.3359 44.901 37.7287 44.901 38.1861C44.901 38.7628 44.7519 39.2748 44.4536 39.7223C44.1586 40.1697 43.7294 40.5227 43.1659 40.7812C42.6058 41.0398 41.928 41.169 41.1325 41.169C40.3702 41.169 39.7107 41.048 39.1539 40.8061C38.597 40.5641 38.1612 40.2211 37.8463 39.777C37.5315 39.3295 37.3575 38.7992 37.3243 38.1861H38.8655C38.8953 38.554 39.0147 38.8605 39.2235 39.1058C39.4356 39.3478 39.7057 39.5284 40.0338 39.6477C40.3653 39.7637 40.7282 39.8217 41.1226 39.8217C41.5568 39.8217 41.9429 39.7538 42.281 39.6179C42.6224 39.4787 42.8908 39.2864 43.0864 39.0412C43.2819 38.7926 43.3797 38.5026 43.3797 38.1711C43.3797 37.8695 43.2935 37.6226 43.1212 37.4304C42.9522 37.2381 42.7218 37.0791 42.4301 36.9531C42.1418 36.8272 41.8153 36.7161 41.4507 36.62L40.2476 36.2919C39.4323 36.0698 38.786 35.7433 38.3087 35.3125C37.8347 34.8816 37.5977 34.3115 37.5977 33.6023C37.5977 33.0156 37.7568 32.5035 38.075 32.066C38.3932 31.6285 38.8241 31.2888 39.3676 31.0469C39.9112 30.8016 40.5244 30.679 41.2071 30.679C41.8965 30.679 42.5047 30.7999 43.0317 31.0419C43.562 31.2838 43.9796 31.6169 44.2845 32.0412C44.5895 32.4621 44.7486 32.946 44.7618 33.4929H43.2803Z" fill="#0E9F6E"/>
</svg>
