<svg width="384" height="160" viewBox="0 0 384 160" fill="none" xmlns="http://www.w3.org/2000/svg">
<path d="M384 -22H0V229.215H384V-22Z" fill="url(#paint0_linear_20_1275)"/>
<path opacity="0.12" d="M875.881 488.055C766.186 502.034 649.705 483.726 558.606 438.088C485.004 401.286 424.851 346.699 338.628 329.011C293.89 319.853 246.395 321.717 199.951 324.238C153.507 326.759 106.377 329.96 60.8599 323.328C15.3427 316.695 -29.395 298.479 -50.1761 268.467C-66.7062 244.607 -67.9225 58.3284 -50.0275 34.7006C-32.1325 11.0729 2.19258 -5.63546 39.0106 -8.621C93.6593 -13.0081 143.913 10.5894 188.364 33.5899C232.815 56.5905 281.805 81.0428 336.595 78.6668C413.626 75.3362 470.066 20.6046 545.964 10.2435C612.259 1.17896 676.573 27.6165 733.803 52.9702L875.881 488.055Z" fill="url(#paint1_linear_20_1275)"/>
<path opacity="0.2" d="M675.186 214.788C602.195 241.39 521.701 249.226 455.923 236.069C402.786 225.483 357.149 201.739 297.191 204.993C266.083 206.693 234.102 215.632 202.893 224.803C171.683 233.974 140.07 243.677 108.662 247.06C77.2542 250.443 45.3299 246.565 28.5582 231.495C15.2184 219.516 13.0529 200.997 23.0359 183.513C33.0189 166.029 54.7469 150.111 79.3994 142.233C115.995 130.566 152.138 136.852 184.299 143.723C216.461 150.593 251.825 157.613 288.698 147.161C340.539 132.474 373.809 89.5153 424.249 70.6849C468.306 54.2282 514.222 59.9563 555.246 66.1792L675.186 214.788Z" fill="url(#paint2_linear_20_1275)"/>
<defs>
<linearGradient id="paint0_linear_20_1275" x1="0" y1="-22" x2="230.179" y2="329.845" gradientUnits="userSpaceOnUse">
<stop stop-color="#53E7AF"/>
<stop offset="1" stop-color="#31C48D"/>
</linearGradient>
<linearGradient id="paint1_linear_20_1275" x1="831.749" y1="501.597" x2="730.354" y2="-25.3946" gradientUnits="userSpaceOnUse">
<stop stop-color="white" stop-opacity="0"/>
<stop offset="1" stop-color="white"/>
</linearGradient>
<linearGradient id="paint2_linear_20_1275" x1="45.2675" y1="249.768" x2="82.8358" y2="26.8186" gradientUnits="userSpaceOnUse">
<stop stop-color="white" stop-opacity="0"/>
<stop offset="1" stop-color="white"/>
</linearGradient>
</defs>
</svg>
